<mxfile host="app.diagrams.net" agent="Mozilla/5.0 (X11; Linux x86_64) AppleWebKit/537.36 (KHTML, like Gecko) Chrome/127.0.0.0 Safari/537.36" version="24.8.0">
  <diagram name="Page-1" id="e56a1550-8fbb-45ad-956c-1786394a9013">
    <mxGraphModel dx="1780" dy="718" grid="1" gridSize="10" guides="1" tooltips="1" connect="1" arrows="1" fold="1" page="1" pageScale="1" pageWidth="1100" pageHeight="850" background="none" math="0" shadow="0">
      <root>
        <mxCell id="0" />
        <mxCell id="1" parent="0" />
        <mxCell id="92ZO8FLdLCJEEevnyuCZ-19" value="" style="edgeStyle=orthogonalEdgeStyle;rounded=0;orthogonalLoop=1;jettySize=auto;html=1;entryX=0;entryY=0.5;entryDx=0;entryDy=0;" edge="1" parent="1" source="92ZO8FLdLCJEEevnyuCZ-10" target="92ZO8FLdLCJEEevnyuCZ-20">
          <mxGeometry relative="1" as="geometry">
            <mxPoint x="370" y="160" as="targetPoint" />
          </mxGeometry>
        </mxCell>
        <mxCell id="92ZO8FLdLCJEEevnyuCZ-10" value="&lt;font style=&quot;font-size: 14px;&quot;&gt;&lt;b&gt;AMateria&lt;/b&gt;&lt;/font&gt;" style="whiteSpace=wrap;html=1;aspect=fixed;" vertex="1" parent="1">
          <mxGeometry x="310" y="270" width="120" height="120" as="geometry" />
        </mxCell>
        <mxCell id="92ZO8FLdLCJEEevnyuCZ-15" value="abstract class" style="text;html=1;align=center;verticalAlign=middle;whiteSpace=wrap;rounded=0;strokeColor=default;" vertex="1" parent="1">
          <mxGeometry x="310" y="360" width="120" height="30" as="geometry" />
        </mxCell>
        <mxCell id="92ZO8FLdLCJEEevnyuCZ-17" value="std::string _type" style="text;html=1;align=center;verticalAlign=middle;whiteSpace=wrap;rounded=0;strokeColor=default;" vertex="1" parent="1">
          <mxGeometry x="310" y="270" width="120" height="30" as="geometry" />
        </mxCell>
        <mxCell id="92ZO8FLdLCJEEevnyuCZ-20" value="&lt;b&gt;&lt;font style=&quot;font-size: 14px;&quot;&gt;Cure&lt;/font&gt;&lt;/b&gt;" style="whiteSpace=wrap;html=1;aspect=fixed;" vertex="1" parent="1">
          <mxGeometry x="430" y="120" width="80" height="80" as="geometry" />
        </mxCell>
        <mxCell id="92ZO8FLdLCJEEevnyuCZ-21" value="&lt;b&gt;&lt;font style=&quot;font-size: 14px;&quot;&gt;Ice&lt;/font&gt;&lt;/b&gt;" style="whiteSpace=wrap;html=1;aspect=fixed;" vertex="1" parent="1">
          <mxGeometry x="230" y="120" width="80" height="80" as="geometry" />
        </mxCell>
        <mxCell id="92ZO8FLdLCJEEevnyuCZ-22" value="" style="edgeStyle=orthogonalEdgeStyle;rounded=0;orthogonalLoop=1;jettySize=auto;html=1;entryX=1;entryY=0.5;entryDx=0;entryDy=0;exitX=0.5;exitY=0;exitDx=0;exitDy=0;" edge="1" parent="1" source="92ZO8FLdLCJEEevnyuCZ-17" target="92ZO8FLdLCJEEevnyuCZ-21">
          <mxGeometry relative="1" as="geometry">
            <mxPoint x="380" y="280" as="sourcePoint" />
            <mxPoint x="440" y="170" as="targetPoint" />
            <Array as="points">
              <mxPoint x="370" y="160" />
            </Array>
          </mxGeometry>
        </mxCell>
        <mxCell id="92ZO8FLdLCJEEevnyuCZ-23" value="ICharacter" style="text;html=1;align=center;verticalAlign=middle;whiteSpace=wrap;rounded=0;strokeColor=default;" vertex="1" parent="1">
          <mxGeometry x="230" y="170" width="80" height="30" as="geometry" />
        </mxCell>
        <mxCell id="92ZO8FLdLCJEEevnyuCZ-24" value="ICharacter" style="text;html=1;align=center;verticalAlign=middle;whiteSpace=wrap;rounded=0;strokeColor=default;" vertex="1" parent="1">
          <mxGeometry x="430" y="170" width="80" height="30" as="geometry" />
        </mxCell>
        <mxCell id="92ZO8FLdLCJEEevnyuCZ-25" value="inherit" style="text;html=1;align=center;verticalAlign=middle;whiteSpace=wrap;rounded=0;" vertex="1" parent="1">
          <mxGeometry x="340" y="130" width="60" height="30" as="geometry" />
        </mxCell>
        <mxCell id="92ZO8FLdLCJEEevnyuCZ-26" value="&lt;b&gt;&lt;font style=&quot;font-size: 15px;&quot;&gt;MateriaSource&lt;/font&gt;&lt;/b&gt;" style="whiteSpace=wrap;html=1;aspect=fixed;" vertex="1" parent="1">
          <mxGeometry x="660" y="270" width="130" height="130" as="geometry" />
        </mxCell>
        <mxCell id="92ZO8FLdLCJEEevnyuCZ-27" value="AMateria* _inventory[4]" style="text;html=1;align=center;verticalAlign=middle;whiteSpace=wrap;rounded=0;strokeColor=default;" vertex="1" parent="1">
          <mxGeometry x="660" y="270" width="130" height="30" as="geometry" />
        </mxCell>
        <mxCell id="92ZO8FLdLCJEEevnyuCZ-29" value="func" style="swimlane;fontStyle=0;childLayout=stackLayout;horizontal=1;startSize=30;horizontalStack=0;resizeParent=1;resizeParentMax=0;resizeLast=0;collapsible=1;marginBottom=0;whiteSpace=wrap;html=1;" vertex="1" parent="1">
          <mxGeometry x="510" y="120" width="100" height="90" as="geometry" />
        </mxCell>
        <mxCell id="92ZO8FLdLCJEEevnyuCZ-30" value="clone" style="text;strokeColor=none;fillColor=none;align=left;verticalAlign=middle;spacingLeft=4;spacingRight=4;overflow=hidden;points=[[0,0.5],[1,0.5]];portConstraint=eastwest;rotatable=0;whiteSpace=wrap;html=1;" vertex="1" parent="92ZO8FLdLCJEEevnyuCZ-29">
          <mxGeometry y="30" width="100" height="30" as="geometry" />
        </mxCell>
        <mxCell id="92ZO8FLdLCJEEevnyuCZ-31" value="use (ICharacter)" style="text;strokeColor=none;fillColor=none;align=left;verticalAlign=middle;spacingLeft=4;spacingRight=4;overflow=hidden;points=[[0,0.5],[1,0.5]];portConstraint=eastwest;rotatable=0;whiteSpace=wrap;html=1;" vertex="1" parent="92ZO8FLdLCJEEevnyuCZ-29">
          <mxGeometry y="60" width="100" height="30" as="geometry" />
        </mxCell>
        <mxCell id="92ZO8FLdLCJEEevnyuCZ-33" value="func" style="swimlane;fontStyle=0;childLayout=stackLayout;horizontal=1;startSize=30;horizontalStack=0;resizeParent=1;resizeParentMax=0;resizeLast=0;collapsible=1;marginBottom=0;whiteSpace=wrap;html=1;" vertex="1" parent="1">
          <mxGeometry x="130" y="120" width="100" height="90" as="geometry" />
        </mxCell>
        <mxCell id="92ZO8FLdLCJEEevnyuCZ-34" value="clone" style="text;strokeColor=none;fillColor=none;align=left;verticalAlign=middle;spacingLeft=4;spacingRight=4;overflow=hidden;points=[[0,0.5],[1,0.5]];portConstraint=eastwest;rotatable=0;whiteSpace=wrap;html=1;" vertex="1" parent="92ZO8FLdLCJEEevnyuCZ-33">
          <mxGeometry y="30" width="100" height="30" as="geometry" />
        </mxCell>
        <mxCell id="92ZO8FLdLCJEEevnyuCZ-35" value="use (ICharacter)" style="text;strokeColor=none;fillColor=none;align=left;verticalAlign=middle;spacingLeft=4;spacingRight=4;overflow=hidden;points=[[0,0.5],[1,0.5]];portConstraint=eastwest;rotatable=0;whiteSpace=wrap;html=1;" vertex="1" parent="92ZO8FLdLCJEEevnyuCZ-33">
          <mxGeometry y="60" width="100" height="30" as="geometry" />
        </mxCell>
        <mxCell id="92ZO8FLdLCJEEevnyuCZ-36" value="func" style="swimlane;fontStyle=0;childLayout=stackLayout;horizontal=1;startSize=30;horizontalStack=0;resizeParent=1;resizeParentMax=0;resizeLast=0;collapsible=1;marginBottom=0;whiteSpace=wrap;html=1;" vertex="1" parent="1">
          <mxGeometry x="430" y="270" width="100" height="60" as="geometry">
            <mxRectangle x="430" y="270" width="60" height="30" as="alternateBounds" />
          </mxGeometry>
        </mxCell>
        <mxCell id="92ZO8FLdLCJEEevnyuCZ-37" value="getType" style="text;strokeColor=none;fillColor=none;align=left;verticalAlign=middle;spacingLeft=4;spacingRight=4;overflow=hidden;points=[[0,0.5],[1,0.5]];portConstraint=eastwest;rotatable=0;whiteSpace=wrap;html=1;" vertex="1" parent="92ZO8FLdLCJEEevnyuCZ-36">
          <mxGeometry y="30" width="100" height="30" as="geometry" />
        </mxCell>
        <mxCell id="92ZO8FLdLCJEEevnyuCZ-39" value="func" style="swimlane;fontStyle=0;childLayout=stackLayout;horizontal=1;startSize=30;horizontalStack=0;resizeParent=1;resizeParentMax=0;resizeLast=0;collapsible=1;marginBottom=0;whiteSpace=wrap;html=1;" vertex="1" parent="1">
          <mxGeometry x="790" y="270" width="100" height="90" as="geometry" />
        </mxCell>
        <mxCell id="92ZO8FLdLCJEEevnyuCZ-40" value="learnMateria (AMateria)" style="text;strokeColor=none;fillColor=none;align=left;verticalAlign=middle;spacingLeft=4;spacingRight=4;overflow=hidden;points=[[0,0.5],[1,0.5]];portConstraint=eastwest;rotatable=0;whiteSpace=wrap;html=1;" vertex="1" parent="92ZO8FLdLCJEEevnyuCZ-39">
          <mxGeometry y="30" width="100" height="30" as="geometry" />
        </mxCell>
        <mxCell id="92ZO8FLdLCJEEevnyuCZ-41" value="createMateria (std::string)" style="text;strokeColor=none;fillColor=none;align=left;verticalAlign=middle;spacingLeft=4;spacingRight=4;overflow=hidden;points=[[0,0.5],[1,0.5]];portConstraint=eastwest;rotatable=0;whiteSpace=wrap;html=1;" vertex="1" parent="92ZO8FLdLCJEEevnyuCZ-39">
          <mxGeometry y="60" width="100" height="30" as="geometry" />
        </mxCell>
        <mxCell id="92ZO8FLdLCJEEevnyuCZ-44" value="func" style="swimlane;fontStyle=0;childLayout=stackLayout;horizontal=1;startSize=30;horizontalStack=0;resizeParent=1;resizeParentMax=0;resizeLast=0;collapsible=1;marginBottom=0;whiteSpace=wrap;html=1;" vertex="1" parent="1">
          <mxGeometry x="370" y="520" width="180" height="140" as="geometry">
            <mxRectangle x="430" y="270" width="60" height="30" as="alternateBounds" />
          </mxGeometry>
        </mxCell>
        <mxCell id="92ZO8FLdLCJEEevnyuCZ-45" value="GetName&lt;div&gt;&lt;br&gt;&lt;div&gt;equip (AMateria* m)&lt;/div&gt;&lt;div&gt;&lt;br&gt;&lt;/div&gt;&lt;div&gt;unequip (int idx)&lt;/div&gt;&lt;div&gt;&lt;br&gt;&lt;/div&gt;&lt;div&gt;use (int idx, ICharacter&amp;amp; target)&lt;/div&gt;&lt;/div&gt;" style="text;strokeColor=none;fillColor=none;align=left;verticalAlign=middle;spacingLeft=4;spacingRight=4;overflow=hidden;points=[[0,0.5],[1,0.5]];portConstraint=eastwest;rotatable=0;whiteSpace=wrap;html=1;" vertex="1" parent="92ZO8FLdLCJEEevnyuCZ-44">
          <mxGeometry y="30" width="180" height="110" as="geometry" />
        </mxCell>
        <mxCell id="92ZO8FLdLCJEEevnyuCZ-47" style="edgeStyle=orthogonalEdgeStyle;rounded=0;orthogonalLoop=1;jettySize=auto;html=1;entryX=0.5;entryY=1;entryDx=0;entryDy=0;entryPerimeter=0;" edge="1" parent="1" source="92ZO8FLdLCJEEevnyuCZ-40" target="92ZO8FLdLCJEEevnyuCZ-49">
          <mxGeometry relative="1" as="geometry">
            <mxPoint x="1020" y="270.0000000000001" as="targetPoint" />
          </mxGeometry>
        </mxCell>
        <mxCell id="92ZO8FLdLCJEEevnyuCZ-49" value="add a new AMateria object to the learning inventory max 4&amp;nbsp;" style="shape=note;whiteSpace=wrap;html=1;backgroundOutline=1;darkOpacity=0.05;" vertex="1" parent="1">
          <mxGeometry x="910" y="160" width="130" height="110" as="geometry" />
        </mxCell>
        <mxCell id="92ZO8FLdLCJEEevnyuCZ-50" value="if the type is known returns a new AMateria" style="shape=note;whiteSpace=wrap;html=1;backgroundOutline=1;darkOpacity=0.05;size=27;" vertex="1" parent="1">
          <mxGeometry x="910" y="370" width="130" height="90" as="geometry" />
        </mxCell>
        <mxCell id="92ZO8FLdLCJEEevnyuCZ-51" style="edgeStyle=orthogonalEdgeStyle;rounded=0;orthogonalLoop=1;jettySize=auto;html=1;entryX=0.5;entryY=0;entryDx=0;entryDy=0;entryPerimeter=0;exitX=1;exitY=0.5;exitDx=0;exitDy=0;" edge="1" parent="1" source="92ZO8FLdLCJEEevnyuCZ-41" target="92ZO8FLdLCJEEevnyuCZ-50">
          <mxGeometry relative="1" as="geometry">
            <mxPoint x="975" y="270" as="targetPoint" />
            <mxPoint x="890" y="315" as="sourcePoint" />
          </mxGeometry>
        </mxCell>
        <mxCell id="92ZO8FLdLCJEEevnyuCZ-52" style="edgeStyle=orthogonalEdgeStyle;rounded=0;orthogonalLoop=1;jettySize=auto;html=1;entryX=0.5;entryY=1;entryDx=0;entryDy=0;entryPerimeter=0;" edge="1" parent="1">
          <mxGeometry relative="1" as="geometry">
            <mxPoint x="695" y="120" as="targetPoint" />
            <mxPoint x="610" y="165" as="sourcePoint" />
          </mxGeometry>
        </mxCell>
        <mxCell id="92ZO8FLdLCJEEevnyuCZ-53" style="edgeStyle=orthogonalEdgeStyle;rounded=0;orthogonalLoop=1;jettySize=auto;html=1;exitX=1;exitY=0.5;exitDx=0;exitDy=0;" edge="1" parent="1">
          <mxGeometry relative="1" as="geometry">
            <mxPoint x="710" y="195" as="targetPoint" />
            <mxPoint x="610" y="195" as="sourcePoint" />
            <Array as="points">
              <mxPoint x="690" y="195" />
              <mxPoint x="690" y="195" />
            </Array>
          </mxGeometry>
        </mxCell>
        <mxCell id="92ZO8FLdLCJEEevnyuCZ-54" value="uses the AMateria" style="shape=note;whiteSpace=wrap;html=1;backgroundOutline=1;darkOpacity=0.05;size=17;" vertex="1" parent="1">
          <mxGeometry x="700" y="180" width="140" height="30" as="geometry" />
        </mxCell>
        <mxCell id="92ZO8FLdLCJEEevnyuCZ-55" value="return a copy of the cure AMateria" style="shape=note;whiteSpace=wrap;html=1;backgroundOutline=1;darkOpacity=0.05;size=24;" vertex="1" parent="1">
          <mxGeometry x="670" y="40" width="120" height="80" as="geometry" />
        </mxCell>
        <mxCell id="92ZO8FLdLCJEEevnyuCZ-56" style="edgeStyle=orthogonalEdgeStyle;rounded=0;orthogonalLoop=1;jettySize=auto;html=1;entryX=0.5;entryY=1;entryDx=0;entryDy=0;entryPerimeter=0;exitX=0;exitY=0.5;exitDx=0;exitDy=0;" edge="1" parent="1" source="92ZO8FLdLCJEEevnyuCZ-34" target="92ZO8FLdLCJEEevnyuCZ-59">
          <mxGeometry relative="1" as="geometry">
            <mxPoint x="-55" y="140" as="targetPoint" />
            <mxPoint x="-140" y="185" as="sourcePoint" />
          </mxGeometry>
        </mxCell>
        <mxCell id="92ZO8FLdLCJEEevnyuCZ-58" value="uses the AMateria" style="shape=note;whiteSpace=wrap;html=1;backgroundOutline=1;darkOpacity=0.05;size=17;" vertex="1" parent="1">
          <mxGeometry x="-80" y="180" width="140" height="30" as="geometry" />
        </mxCell>
        <mxCell id="92ZO8FLdLCJEEevnyuCZ-59" value="return a copy of the cure AMateria" style="shape=note;whiteSpace=wrap;html=1;backgroundOutline=1;darkOpacity=0.05;size=24;" vertex="1" parent="1">
          <mxGeometry x="-40" y="40" width="120" height="80" as="geometry" />
        </mxCell>
        <mxCell id="92ZO8FLdLCJEEevnyuCZ-61" style="edgeStyle=orthogonalEdgeStyle;rounded=0;orthogonalLoop=1;jettySize=auto;html=1;exitX=0;exitY=0.634;exitDx=0;exitDy=0;entryX=1;entryY=0.634;entryDx=0;entryDy=0;entryPerimeter=0;exitPerimeter=0;" edge="1" parent="1" source="92ZO8FLdLCJEEevnyuCZ-35" target="92ZO8FLdLCJEEevnyuCZ-58">
          <mxGeometry relative="1" as="geometry" />
        </mxCell>
        <mxCell id="92ZO8FLdLCJEEevnyuCZ-62" value="" style="group" vertex="1" connectable="0" parent="1">
          <mxGeometry x="230" y="520" width="140" height="140" as="geometry" />
        </mxCell>
        <mxCell id="92ZO8FLdLCJEEevnyuCZ-42" value="&lt;font size=&quot;1&quot;&gt;&lt;b style=&quot;font-size: 14px;&quot;&gt;Character&lt;/b&gt;&lt;/font&gt;" style="whiteSpace=wrap;html=1;aspect=fixed;" vertex="1" parent="92ZO8FLdLCJEEevnyuCZ-62">
          <mxGeometry width="140" height="140" as="geometry" />
        </mxCell>
        <mxCell id="92ZO8FLdLCJEEevnyuCZ-43" value="std::string _name&lt;div&gt;AMateria* _inventory[4]&lt;/div&gt;" style="text;html=1;align=center;verticalAlign=middle;whiteSpace=wrap;rounded=0;strokeColor=default;" vertex="1" parent="92ZO8FLdLCJEEevnyuCZ-62">
          <mxGeometry width="140" height="50" as="geometry" />
        </mxCell>
        <mxCell id="92ZO8FLdLCJEEevnyuCZ-63" value="if there is enough space equip the AMateria* m" style="shape=note;whiteSpace=wrap;html=1;backgroundOutline=1;darkOpacity=0.05;" vertex="1" parent="1">
          <mxGeometry x="570" y="450" width="220" height="100" as="geometry" />
        </mxCell>
      </root>
    </mxGraphModel>
  </diagram>
</mxfile>
